<svg width="24" height="24" viewBox="0 0 24 24" fill="none" xmlns="http://www.w3.org/2000/svg">
<path d="M19.4999 3.75146H4.49994C3.2573 3.75146 2.24994 4.75882 2.24994 6.00147V18.0015C2.24994 19.2441 3.2573 20.2515 4.49994 20.2515H19.4999C20.7426 20.2515 21.7499 19.2441 21.7499 18.0015V6.00147C21.7499 4.75882 20.7426 3.75146 19.4999 3.75146Z" stroke="#FFFFFF" stroke-width="1" stroke-linejoin="round"/>
<path d="M15.75 9.75342C16.5784 9.75342 17.25 9.08185 17.25 8.25342C17.25 7.42499 16.5784 6.75342 15.75 6.75342C14.9215 6.75342 14.25 7.42499 14.25 8.25342C14.25 9.08185 14.9215 9.75342 15.75 9.75342Z" stroke="#FFFFFF" stroke-width="1" stroke-miterlimit="10"/>
<path d="M14.2499 15.743L10.0003 11.5012C9.72983 11.2309 9.36636 11.074 8.98414 11.0627C8.60192 11.0513 8.2298 11.1864 7.94385 11.4403L2.24994 16.5028M10.4999 20.2528L16.2815 14.4712C16.5459 14.2063 16.8998 14.0498 17.2737 14.0324C17.6476 14.0151 18.0145 14.1382 18.3023 14.3775L21.7499 17.2528" stroke="#FFFFFF" stroke-width="1" stroke-linecap="round" stroke-linejoin="round"/>
</svg>
