<svg width="246" height="241" viewBox="0 0 246 241" fill="transparent" xmlns="http://www.w3.org/2000/svg">
<path d="M130.597 163.655C127.798 160.848 127.597 157.133 130.109 154.62C130.831 153.895 131.736 153.318 132.803 152.898L132.888 152.858C135.105 151.982 138.858 150.229 140.123 148.966C141.169 147.916 141.912 146.601 142.271 145.162C142.299 145.032 142.328 144.908 142.353 144.769C142.609 143.462 142.54 142.113 142.151 140.839C141.762 139.566 141.065 138.408 140.123 137.468C139.134 136.48 137.907 135.764 136.561 135.387C135.215 135.011 133.795 134.987 132.437 135.318C130.992 135.669 129.672 136.412 128.623 137.466C127.365 138.725 125.609 142.482 124.728 144.698L124.7 144.755C124.28 145.834 123.692 146.752 122.972 147.475C120.454 149.992 116.738 149.791 113.936 146.991L91.0436 124.103L68.0721 147.098C67.2484 147.923 66.8805 148.782 67.0319 149.525C67.1876 150.261 67.8739 150.902 68.9622 151.324C69.6047 151.58 75.308 153.843 77.5936 156.13C78.8264 157.364 79.778 158.849 80.383 160.485C80.9881 162.12 81.2323 163.867 81.099 165.606C80.8945 168.506 79.6502 171.234 77.595 173.289C72.864 178.018 65.1652 178.018 60.4342 173.289C58.1487 171.002 55.8858 165.298 55.6325 164.651C55.2079 163.564 54.571 162.882 53.8323 162.729C53.0922 162.571 52.2303 162.94 51.4024 163.769L45.3425 169.817L32.2731 182.865V193.047C32.2731 214.482 45.0439 225.257 62.2287 220.561C65.4766 219.673 68.8844 218.241 72.387 216.214L94.5279 203.432C96.9521 202.028 99.549 200.532 102.276 198.957C113.953 192.219 125.628 185.478 137.301 178.734L142.612 175.667L130.597 163.655Z" fill="#00C4F5"/>
<path d="M76.9681 162.934C76.6621 161.347 75.8848 159.888 74.7377 158.748C73.481 157.489 69.7236 155.731 67.506 154.851L67.4466 154.828C66.3696 154.404 65.4554 153.821 64.7294 153.093C62.2131 150.58 62.4127 146.866 65.2148 144.058L88.0986 121.168L65.1072 98.1946C64.2836 97.3724 63.4203 96.9987 62.683 97.1587C61.9428 97.3101 61.3032 97.995 60.8772 99.0833C60.6267 99.7258 58.3596 105.432 56.0754 107.717C52.5785 111.213 47.4667 112.119 43.1235 110.449C41.5452 109.843 40.1118 108.912 38.9161 107.717C34.1837 102.986 34.1879 95.292 38.9161 90.5582C41.2016 88.2726 46.9077 86.0097 47.5488 85.7549C48.6385 85.3304 49.3207 84.6936 49.4749 83.9548C49.6306 83.2161 49.2626 82.3486 48.4361 81.5235L42.5376 75.6151L32.2731 65.3322V176.997L42.5447 166.726L48.5522 160.722C51.3557 157.918 55.0706 157.717 57.5868 160.236C58.3372 161.006 58.9231 161.921 59.3091 162.925L59.3488 163.015C60.2191 165.227 61.9768 168.982 63.2406 170.241C64.2887 171.292 65.6041 172.037 67.0446 172.395C67.172 172.422 67.2951 172.456 67.4352 172.477C68.7425 172.732 70.0922 172.661 71.3656 172.271C72.639 171.881 73.797 171.184 74.7377 170.241C75.5794 169.399 76.225 168.381 76.6286 167.261C77.0322 166.141 77.1839 164.945 77.0728 163.76C77.0512 163.483 77.0163 163.208 76.9681 162.934Z" fill="#00B4EB"/>
<path d="M94.2705 121.249L118.032 144.737C118.578 145.101 119.834 145.611 120.49 144.737C121.309 143.645 124.04 134.905 128.683 132.447C133.326 129.989 139.062 131.081 142.339 133.266C146.884 136.296 147.426 142.825 146.709 146.649C145.89 151.019 138.515 155.116 133.872 157.301C132.124 158.393 133.508 160.305 134.419 161.124L146.982 173.414C146.982 173.414 174.294 157.445 182.76 152.931C191.227 148.416 203.79 140.094 203.79 140.094C208.342 136.999 216.572 127.695 213.076 115.241C208.706 99.6729 183.58 90.6601 174.567 84.6515C165.609 79.4077 152.991 71.5419 146.709 68.8108C141.793 73.7269 131.739 83.4865 130.868 83.5591C127.591 83.8322 127.045 83.8322 124.86 82.1935C124.131 81.4269 122.183 78.4966 120.217 72.9075C115.847 66.0796 107.926 70.1764 106.288 73.4538C105.03 75.9688 103.557 81.3741 109.292 84.6515C115.027 87.9289 118.305 88.7483 119.124 90.9332C119.431 91.7526 120.217 95.3031 114.481 100.765C109.893 105.135 99.0956 116.242 94.2705 121.249Z" fill="url(#paint0_radial_255_35)"/>
<path d="M32 59.2517L53.3031 80.2817C54.0314 81.4652 54.1224 84.3784 52.7568 86.5634C50.7098 89.8387 41.4545 89.4697 39.6473 97.2149C37.7354 105.408 47.628 109.555 52.2106 105.408C57.9461 100.219 57.1267 93.3913 61.7697 93.1181C66.4127 92.845 68.3245 94.4837 79.7954 106.501C88.9721 116.115 91.0842 118.154 90.9931 117.972L114.208 94.7569C114.754 94.2106 115.574 92.7904 114.481 91.4795C113.116 89.8408 107.107 89.0214 103.83 85.1978C100.552 81.3741 100.006 73.4538 103.83 69.357C107.653 65.2603 115.301 62.5291 122.402 68.8108C124.04 70.9957 126.498 75.9118 127.864 78.643C128.519 79.7354 129.776 79.0982 130.322 78.643L142.885 66.0796L66.6858 22.6541C62.3159 20.6513 51.719 17.8473 44.2902 22.6541C35.0043 28.6627 32 33.8519 32 42.5916V59.2517Z" fill="#0099D6"/>
<defs>
<radialGradient id="paint0_radial_255_35" cx="0" cy="0" r="1" gradientUnits="userSpaceOnUse" gradientTransform="translate(211.5 119.5) rotate(178.995) scale(114.018 135.202)">
<stop stop-color="#00C4F5"/>
<stop offset="0.670243" stop-color="#007FC5"/>
</radialGradient>
</defs>
</svg>
