<svg width="182" height="202" viewBox="0 0 182 202" fill="none" xmlns="http://www.w3.org/2000/svg">
<path d="M98.5971 143.655C95.7979 140.848 95.5969 137.133 98.1089 134.62C98.8306 133.895 99.7363 133.318 100.803 132.898L100.888 132.858C103.105 131.982 106.858 130.229 108.123 128.966C109.169 127.916 109.912 126.601 110.271 125.162C110.299 125.032 110.328 124.908 110.353 124.769C110.609 123.462 110.54 122.113 110.151 120.839C109.762 119.566 109.065 118.408 108.123 117.468C107.134 116.48 105.907 115.764 104.561 115.387C103.215 115.011 101.795 114.987 100.437 115.318C98.9919 115.669 97.6719 116.412 96.6229 117.466C95.3648 118.725 93.6085 122.482 92.7283 124.698L92.7 124.755C92.2797 125.834 91.6924 126.752 90.972 127.475C88.4544 129.992 84.738 129.791 81.9359 126.991L59.0436 104.103L36.0721 127.098C35.2484 127.923 34.8805 128.782 35.0319 129.525C35.1876 130.261 35.8739 130.902 36.9622 131.324C37.6047 131.58 43.308 133.843 45.5936 136.13C46.8264 137.364 47.778 138.849 48.383 140.485C48.9881 142.12 49.2323 143.867 49.099 145.606C48.8945 148.506 47.6502 151.234 45.595 153.289C40.864 158.018 33.1652 158.018 28.4342 153.289C26.1487 151.002 23.8858 145.298 23.6325 144.651C23.2079 143.564 22.571 142.882 21.8323 142.729C21.0922 142.571 20.2303 142.94 19.4024 143.769L13.3425 149.817L0.273132 162.865V173.047C0.273132 194.482 13.0439 205.257 30.2287 200.561C33.4766 199.673 36.8844 198.241 40.387 196.214L62.5279 183.432C64.9521 182.028 67.549 180.532 70.2761 178.957C81.9527 172.219 93.6276 165.478 105.301 158.734L110.612 155.667L98.5971 143.655Z" fill="#00C4F5"/>
<path d="M44.968 142.934C44.6621 141.347 43.8848 139.888 42.7376 138.748C41.4809 137.489 37.7236 135.731 35.506 134.851L35.4465 134.828C34.3696 134.404 33.4553 133.821 32.7293 133.093C30.2131 130.58 30.4127 126.866 33.2148 124.058L56.0986 101.168L33.1072 78.1946C32.2836 77.3723 31.4203 76.9987 30.683 77.1587C29.9428 77.3101 29.3031 77.995 28.8772 79.0833C28.6267 79.7258 26.3595 85.4319 24.0754 87.7175C20.5784 91.213 15.4667 92.1187 11.1235 90.4488C9.54521 89.843 8.11182 88.9125 6.91607 87.7175C2.18363 82.9865 2.18788 75.292 6.91607 70.5582C9.20162 68.2726 14.9077 66.0097 15.5488 65.7549C16.6385 65.3304 17.3206 64.6936 17.4749 63.9548C17.6306 63.2161 17.2626 62.3486 16.4361 61.5235L10.5376 55.615L0.273109 45.3322V156.997L10.5446 146.726L16.5522 140.722C19.3557 137.918 23.0706 137.717 25.5868 140.236C26.3371 141.006 26.9231 141.921 27.3091 142.925L27.3487 143.015C28.2191 145.227 29.9768 148.982 31.2405 150.241C32.2887 151.292 33.6041 152.037 35.0446 152.395C35.172 152.422 35.2951 152.456 35.4352 152.477C36.7424 152.732 38.0922 152.661 39.3656 152.271C40.639 151.881 41.797 151.184 42.7376 150.241C43.5793 149.399 44.225 148.381 44.6286 147.261C45.0322 146.141 45.1839 144.945 45.0728 143.759C45.0512 143.483 45.0162 143.208 44.968 142.934Z" fill="#00B4EB"/>
<path d="M62.2705 101.249L86.0317 124.737C86.5779 125.101 87.8342 125.611 88.4897 124.737C89.3091 123.645 92.0402 114.905 96.6832 112.447C101.326 109.989 107.062 111.081 110.339 113.266C114.884 116.296 115.426 122.825 114.709 126.649C113.89 131.019 106.515 135.116 101.872 137.301C100.124 138.393 101.508 140.305 102.419 141.124L114.982 153.414C114.982 153.414 142.294 137.445 150.76 132.931C159.227 128.416 171.79 120.094 171.79 120.094C176.342 116.999 184.572 107.695 181.076 95.2406C176.706 79.6729 151.58 70.6601 142.567 64.6515C133.609 59.4077 120.991 51.5419 114.709 48.8108C109.793 53.7269 99.7391 63.4865 98.8681 63.5591C95.5907 63.8322 95.0445 63.8322 92.8596 62.1935C92.1313 61.4269 90.183 58.4966 88.2166 52.9075C83.8467 46.0796 75.9264 50.1764 74.2877 53.4538C73.0301 55.9688 71.5565 61.3741 77.2919 64.6515C83.0274 67.9289 86.3048 68.7483 87.1241 70.9332C87.4314 71.7526 88.2166 75.3031 82.4812 80.7654C77.8928 85.1353 67.0956 96.242 62.2705 101.249Z" fill="url(#paint0_radial_264_39)"/>
<path d="M0 39.2517L21.3031 60.2817C22.0314 61.4652 22.1224 64.3784 20.7568 66.5634C18.7098 69.8387 9.45448 69.4697 7.64726 77.2149C5.73544 85.4084 15.628 89.5546 20.2106 85.4084C25.9461 80.2192 25.1267 73.3913 29.7697 73.1181C34.4127 72.845 36.3245 74.4837 47.7954 86.5009C56.9721 96.1146 59.0842 98.1538 58.9931 97.9717L82.208 74.7569C82.7543 74.2106 83.5736 72.7904 82.4812 71.4795C81.1156 69.8408 75.107 69.0214 71.8296 65.1978C68.5522 61.3741 68.006 53.4538 71.8296 49.357C75.6532 45.2603 83.3005 42.5291 90.4015 48.8108C92.0402 50.9957 94.4983 55.9118 95.8639 58.643C96.5193 59.7354 97.7757 59.0982 98.3219 58.643L110.885 46.0796L34.6858 2.65411C30.3159 0.651256 19.719 -2.15274 12.2902 2.65411C3.00428 8.66267 0 13.8519 0 22.5916V39.2517Z" fill="#0099D6"/>
<defs>
<radialGradient id="paint0_radial_264_39" cx="0" cy="0" r="1" gradientUnits="userSpaceOnUse" gradientTransform="translate(179.5 99.5) rotate(178.995) scale(114.018 135.202)">
<stop stop-color="#00C4F5"/>
<stop offset="0.670243" stop-color="#007FC5"/>
</radialGradient>
</defs>
</svg>
