<svg width="845" height="202" viewBox="0 0 845 202" fill="none" xmlns="http://www.w3.org/2000/svg">
<path d="M98.5971 143.655C95.7979 140.848 95.5969 137.133 98.1089 134.62C98.8306 133.895 99.7363 133.318 100.803 132.898L100.888 132.858C103.105 131.982 106.858 130.229 108.123 128.966C109.169 127.916 109.912 126.601 110.271 125.162C110.299 125.032 110.328 124.908 110.353 124.769C110.609 123.462 110.54 122.113 110.151 120.839C109.762 119.566 109.065 118.408 108.123 117.468C107.134 116.48 105.907 115.764 104.561 115.387C103.215 115.011 101.795 114.987 100.437 115.318C98.9919 115.669 97.6719 116.412 96.6229 117.466C95.3648 118.725 93.6085 122.482 92.7283 124.698L92.7 124.755C92.2797 125.834 91.6924 126.752 90.972 127.475C88.4544 129.992 84.738 129.791 81.9359 126.991L59.0436 104.103L36.0721 127.098C35.2484 127.923 34.8805 128.782 35.0319 129.525C35.1876 130.261 35.8739 130.902 36.9622 131.324C37.6047 131.58 43.308 133.843 45.5936 136.13C46.8264 137.364 47.778 138.849 48.383 140.485C48.9881 142.12 49.2323 143.867 49.099 145.606C48.8945 148.506 47.6502 151.234 45.595 153.289C40.864 158.018 33.1652 158.018 28.4342 153.289C26.1487 151.002 23.8858 145.298 23.6325 144.651C23.2079 143.564 22.571 142.882 21.8323 142.729C21.0922 142.571 20.2303 142.94 19.4024 143.769L13.3425 149.817L0.273132 162.865V173.047C0.273132 194.482 13.0439 205.257 30.2287 200.561C33.4766 199.673 36.8844 198.241 40.387 196.214L62.5279 183.432C64.9521 182.028 67.549 180.532 70.2761 178.957C81.9527 172.219 93.6276 165.478 105.301 158.734L110.612 155.667L98.5971 143.655Z" fill="#00C4F5"/>
<path d="M44.968 142.934C44.6621 141.347 43.8848 139.888 42.7376 138.748C41.4809 137.489 37.7236 135.731 35.506 134.851L35.4465 134.828C34.3696 134.404 33.4553 133.821 32.7293 133.093C30.2131 130.58 30.4127 126.866 33.2148 124.058L56.0986 101.168L33.1072 78.1946C32.2836 77.3723 31.4203 76.9987 30.683 77.1587C29.9428 77.3101 29.3031 77.995 28.8772 79.0833C28.6267 79.7258 26.3595 85.4319 24.0754 87.7175C20.5784 91.213 15.4667 92.1187 11.1235 90.4488C9.54521 89.843 8.11182 88.9125 6.91607 87.7175C2.18363 82.9865 2.18788 75.292 6.91607 70.5582C9.20162 68.2726 14.9077 66.0097 15.5488 65.7549C16.6385 65.3304 17.3206 64.6936 17.4749 63.9548C17.6306 63.2161 17.2626 62.3486 16.4361 61.5235L10.5376 55.615L0.273109 45.3322V156.997L10.5446 146.726L16.5522 140.722C19.3557 137.918 23.0706 137.717 25.5868 140.236C26.3371 141.006 26.9231 141.921 27.3091 142.925L27.3487 143.015C28.2191 145.227 29.9768 148.982 31.2405 150.241C32.2887 151.292 33.6041 152.037 35.0446 152.395C35.172 152.422 35.2951 152.456 35.4352 152.477C36.7424 152.732 38.0922 152.661 39.3656 152.271C40.639 151.881 41.797 151.184 42.7376 150.241C43.5793 149.399 44.225 148.381 44.6286 147.261C45.0322 146.141 45.1839 144.945 45.0728 143.759C45.0512 143.483 45.0162 143.208 44.968 142.934Z" fill="#00B4EB"/>
<path d="M62.2705 101.249L86.0317 124.737C86.5779 125.101 87.8342 125.611 88.4897 124.737C89.3091 123.645 92.0402 114.905 96.6832 112.447C101.326 109.989 107.062 111.081 110.339 113.266C114.884 116.296 115.426 122.825 114.709 126.649C113.89 131.019 106.515 135.116 101.872 137.301C100.124 138.393 101.508 140.305 102.419 141.124L114.982 153.414C114.982 153.414 142.294 137.445 150.76 132.931C159.227 128.416 171.79 120.094 171.79 120.094C176.342 116.999 184.572 107.695 181.076 95.2406C176.706 79.6729 151.58 70.6601 142.567 64.6515C133.609 59.4077 120.991 51.5419 114.709 48.8108C109.793 53.7269 99.7391 63.4865 98.8681 63.5591C95.5907 63.8322 95.0445 63.8322 92.8596 62.1935C92.1313 61.4269 90.183 58.4966 88.2166 52.9075C83.8467 46.0796 75.9264 50.1764 74.2877 53.4538C73.0301 55.9688 71.5565 61.3741 77.2919 64.6515C83.0274 67.9289 86.3048 68.7483 87.1241 70.9332C87.4314 71.7526 88.2166 75.3031 82.4812 80.7654C77.8928 85.1353 67.0956 96.242 62.2705 101.249Z" fill="url(#paint0_radial_264_39)"/>
<path d="M0 39.2517L21.3031 60.2817C22.0314 61.4652 22.1224 64.3784 20.7568 66.5634C18.7098 69.8387 9.45448 69.4697 7.64726 77.2149C5.73544 85.4084 15.628 89.5546 20.2106 85.4084C25.9461 80.2192 25.1267 73.3913 29.7697 73.1181C34.4127 72.845 36.3245 74.4837 47.7954 86.5009C56.9721 96.1146 59.0842 98.1538 58.9931 97.9717L82.208 74.7569C82.7543 74.2106 83.5736 72.7904 82.4812 71.4795C81.1156 69.8408 75.107 69.0214 71.8296 65.1978C68.5522 61.3741 68.006 53.4538 71.8296 49.357C75.6532 45.2603 83.3005 42.5291 90.4015 48.8108C92.0402 50.9957 94.4983 55.9118 95.8639 58.643C96.5193 59.7354 97.7757 59.0982 98.3219 58.643L110.885 46.0796L34.6858 2.65411C30.3159 0.651256 19.719 -2.15274 12.2902 2.65411C3.00428 8.66267 0 13.8519 0 22.5916V39.2517Z" fill="#0099D6"/>
<path fill-rule="evenodd" clip-rule="evenodd" d="M206 130.275V71.5867H240.14C243.508 71.5867 250.9 73.7704 253.522 82.5054C256.8 93.4241 254.615 101.067 253.522 104.07C252.43 107.072 246.967 114.17 240.14 114.17H221.568V130.275H206ZM221.568 101.34V84.4161C234.677 84.4161 235.223 83.8702 237.408 86.5999C239.593 89.3296 239.593 91.5133 239.047 96.9727C238.173 100.467 234.574 101.34 232.884 101.34H221.568Z" fill="#0E2547"/>
<path d="M262.808 80.3216V121.54C262.717 124.36 264.174 130.002 270.729 130.002H306.78V117.172H279.468C279.104 117.172 278.376 116.845 278.376 115.534V107.345H302.41V94.243H278.376V86.054C278.285 85.508 278.485 84.4161 280.015 84.4161H306.78V71.8596H268.544C266.632 72.0416 262.808 73.9888 262.808 80.3216Z" fill="#0E2547"/>
<path fill-rule="evenodd" clip-rule="evenodd" d="M315.793 71.8596V130.275H331.36V114.443H338.735C339.736 116.171 342.558 120.721 343.378 121.54C344.197 122.359 348.021 132.459 363.315 130.821C365.5 130.384 366.592 130.093 366.866 130.002L354.302 113.351C356.578 112.714 361.731 109.584 364.134 102.159C367.139 92.8782 364.408 84.4161 361.949 79.5027C359.491 74.5893 353.483 71.8596 350.479 71.8596H315.793ZM331.36 101.34V84.4161H343.924C347.638 84.8529 348.749 87.8737 348.84 89.3296V96.6997C348.184 100.412 345.289 101.34 343.924 101.34H331.36Z" fill="#0E2547"/>
<path d="M374.513 78.1379V130.275H389.807V109.529H413.842V96.4267H389.807V86.3269C389.716 85.69 390.135 84.4161 392.539 84.4161H417.392V71.8596H382.433C380.157 71.6776 375.387 72.6785 374.513 78.1379Z" fill="#0E2547"/>
<path fill-rule="evenodd" clip-rule="evenodd" d="M429.409 78.1379C427.497 79.9577 423.619 85.7264 423.401 94.243C423.128 104.889 423.401 114.443 426.405 119.356C429.409 124.269 432.96 128.364 442.519 130.275C452.078 132.186 463.549 129.456 466.553 127.818C469.557 126.18 476.385 120.994 477.751 111.713C479.116 102.432 479.116 92.0592 475.839 83.8702C472.562 75.6812 465.461 72.4056 456.994 71.3137C448.527 70.2218 436.51 71.8596 429.409 78.1379ZM438.968 95.8808C439.788 86.5999 445.796 84.4161 446.616 84.4161C448.254 83.8702 455.082 83.8702 456.721 84.9621C459.998 87.1458 462.183 89.8755 462.729 95.8808C463.276 101.886 463.003 108.164 461.091 112.532C459.561 116.026 455.355 117.627 453.717 117.718H447.981C444.431 117.718 442.519 115.534 441.153 113.078C439.788 110.621 438.149 105.162 438.968 95.8808Z" fill="#0E2547"/>
<path fill-rule="evenodd" clip-rule="evenodd" d="M487.037 71.8596V130.275H502.604V114.443H509.979C510.98 116.171 513.802 120.721 514.622 121.54C515.441 122.359 519.265 132.459 534.559 130.821C536.744 130.384 537.836 130.093 538.11 130.002L525.546 113.351C527.822 112.714 532.975 109.584 535.378 102.159C538.383 92.8782 535.652 84.4161 533.193 79.5027C530.735 74.5893 524.727 71.8596 521.723 71.8596H487.037ZM502.604 101.34V84.4161H515.168C518.882 84.8529 519.993 87.8737 520.084 89.3296V96.6997C519.428 100.412 516.533 101.34 515.168 101.34H502.604Z" fill="#0E2547"/>
<path d="M546.03 130.275V71.8596H559.413C561.78 71.8596 566.951 73.3882 568.699 79.5027C570.447 85.6172 573.797 95.3349 575.253 99.4294L581.808 79.5027C582.354 76.955 585.031 71.8596 591.367 71.8596H604.477V130.275H588.909V100.521C588.545 101.067 587.653 102.923 586.997 105.981C586.342 109.038 583.993 115.444 582.901 118.264C582.445 119.629 580.716 122.359 577.438 122.359H573.068C571.521 122.359 568.207 121.54 567.333 118.264C566.459 114.989 564.602 108.71 563.783 105.981C563.145 104.161 561.816 100.467 561.598 100.248V130.275H546.03Z" fill="#0E2547"/>
<path fill-rule="evenodd" clip-rule="evenodd" d="M610.212 130.002C616.585 114.352 629.658 82.56 630.969 80.5946C632.608 78.1379 634.793 72.1326 646.264 71.8596C655.44 71.6412 663.197 71.7686 665.928 71.8596V130.275H650.36V120.448H631.789L627.965 130.275H610.212V130.002ZM650.36 107.345H637.251C642.932 88.1285 648.358 84.4161 650.36 84.9621V107.345Z" fill="#0E2547"/>
<path d="M676.033 130.275V71.8596H690.235C692.511 72.0416 697.555 73.4428 699.521 77.5919C701.488 81.7411 709.809 97.8826 713.723 105.435V71.8596H729.564V130.275H715.635C712.995 130.366 706.896 128.582 703.618 120.721C700.341 112.859 694.423 101.613 691.874 96.9727V130.275H676.033Z" fill="#0E2547"/>
<path d="M777.086 94.243H792.108C792.199 91.0584 791.234 83.3789 786.646 78.1379C780.91 71.5867 769.985 71.0407 763.977 71.3137C757.968 71.5867 750.867 71.5867 744.039 78.6838C737.211 85.781 737.211 99.9753 738.85 113.351C740.322 125.361 751.687 130.821 763.977 130.821C776.267 130.821 779.818 129.183 784.734 125.361C789.65 121.54 792.108 112.259 792.108 107.891H777.086C777.36 110.075 776.431 114.989 770.532 117.172C762.884 119.356 758.788 117.172 756.33 113.351C753.872 109.529 751.96 103.797 754.964 91.5133C757.422 84.9621 760.973 84.4161 763.431 84.4161C766.708 84.4161 775.994 82.2324 777.086 94.243Z" fill="#0E2547"/>
<path d="M800.028 80.3216V121.54C799.937 124.36 801.394 130.002 807.949 130.002H844V117.172H816.688C816.324 117.172 815.596 116.845 815.596 115.534V107.345H839.63V94.243H815.596V86.054C815.505 85.508 815.705 84.4161 817.235 84.4161H844V71.8596H805.764C803.852 72.0416 800.028 73.9888 800.028 80.3216Z" fill="#0E2547"/>
<path d="M240.14 114.17C246.967 114.17 252.43 107.072 253.522 104.07C254.615 101.067 256.8 93.4241 253.522 82.5054C250.9 73.7704 243.508 71.5867 240.14 71.5867H206V130.275H221.568V114.17M240.14 114.17C234.677 114.17 225.482 114.17 221.568 114.17M240.14 114.17H221.568M270.729 130.002C264.174 130.002 262.717 124.36 262.808 121.54V80.3216C262.808 73.9888 266.632 72.0416 268.544 71.8596H306.78V84.4161M270.729 130.002C277.283 130.002 297.494 130.002 306.78 130.002M270.729 130.002H306.78M306.78 130.002V117.172H279.468C279.104 117.172 278.376 116.845 278.376 115.534M278.376 115.534C278.376 114.224 278.376 109.529 278.376 107.345M278.376 115.534V107.345M278.376 107.345H302.41V94.243H278.376V86.054C278.285 85.508 278.485 84.4161 280.015 84.4161M280.015 84.4161C281.544 84.4161 298.495 84.4161 306.78 84.4161M280.015 84.4161H306.78M315.793 71.8596V130.275H331.36V114.443H338.735C339.736 116.171 342.558 120.721 343.378 121.54C344.197 122.359 348.021 132.459 363.315 130.821C365.5 130.384 366.592 130.093 366.866 130.002L354.302 113.351C356.578 112.714 361.731 109.584 364.134 102.159C367.139 92.8782 364.408 84.4161 361.949 79.5027C359.491 74.5893 353.483 71.8596 350.479 71.8596M315.793 71.8596C326.353 71.8596 348.075 71.8596 350.479 71.8596M315.793 71.8596H350.479M331.36 84.4161V101.34H343.924C345.289 101.34 348.184 100.412 348.84 96.6997M331.36 84.4161C333.91 84.4161 339.991 84.4161 343.924 84.4161M331.36 84.4161H343.924M348.84 96.6997C348.84 92.3322 348.84 89.9665 348.84 89.3296M348.84 96.6997V89.3296M348.84 89.3296C348.749 87.8737 347.638 84.8529 343.924 84.4161M392.539 84.4161C390.135 84.4161 389.716 85.69 389.807 86.3269V96.4267H413.842V109.529H389.807V130.275H374.513V78.1379C375.387 72.6785 380.157 71.6776 382.433 71.8596H417.392V84.4161M392.539 84.4161C394.942 84.4161 410.109 84.4161 417.392 84.4161M392.539 84.4161H417.392M447.981 117.718C444.431 117.718 442.519 115.534 441.153 113.078C439.788 110.621 438.149 105.162 438.968 95.8808C439.788 86.5999 445.796 84.4161 446.616 84.4161C448.254 83.8702 455.082 83.8702 456.721 84.9621C459.998 87.1458 462.183 89.8755 462.729 95.8808C463.276 101.886 463.003 108.164 461.091 112.532C459.561 116.026 455.355 117.627 453.717 117.718M447.981 117.718C450.822 117.718 452.988 117.718 453.717 117.718M447.981 117.718H453.717M591.367 71.8596C585.031 71.8596 582.354 76.955 581.808 79.5027L575.253 99.4294C573.797 95.3349 570.447 85.6172 568.699 79.5027C566.951 73.3882 561.78 71.8596 559.413 71.8596H546.03V130.275H561.598M591.367 71.8596C597.704 71.8596 602.747 71.8596 604.477 71.8596M591.367 71.8596H604.477M604.477 71.8596V130.275H588.909V100.521C588.545 101.067 587.653 102.923 586.997 105.981C586.342 109.038 583.993 115.444 582.901 118.264C582.445 119.629 580.716 122.359 577.438 122.359M577.438 122.359C574.598 122.359 573.342 122.359 573.068 122.359M577.438 122.359H573.068M573.068 122.359C571.521 122.359 568.207 121.54 567.333 118.264C566.459 114.989 564.602 108.71 563.783 105.981C563.145 104.161 561.816 100.467 561.598 100.248M561.598 100.248C561.598 102.214 561.598 121.085 561.598 130.275M561.598 100.248V130.275M792.108 107.891C792.108 112.259 789.65 121.54 784.734 125.361C779.818 129.183 776.267 130.821 763.977 130.821C751.687 130.821 740.322 125.361 738.85 113.351C737.211 99.9753 737.211 85.781 744.039 78.6838C750.867 71.5867 757.968 71.5867 763.977 71.3137C769.985 71.0407 780.91 71.5867 786.646 78.1379C791.234 83.3789 792.199 91.0584 792.108 94.243H777.086C775.994 82.2324 766.708 84.4161 763.431 84.4161C760.973 84.4161 757.422 84.9621 754.964 91.5133C751.96 103.797 753.872 109.529 756.33 113.351C758.788 117.172 762.884 119.356 770.532 117.172C776.431 114.989 777.36 110.075 777.086 107.891M792.108 107.891C784.242 107.891 778.816 107.891 777.086 107.891M792.108 107.891H777.086M221.568 84.4161V101.34H232.884C234.574 101.34 238.173 100.467 239.047 96.9727C239.593 91.5133 239.593 89.3296 237.408 86.5999C235.223 83.8702 234.677 84.4161 221.568 84.4161ZM487.037 71.8596V130.275H502.604V114.443H509.979C510.98 116.171 513.802 120.721 514.622 121.54C515.441 122.359 519.265 132.459 534.559 130.821C536.744 130.384 537.836 130.093 538.11 130.002L525.546 113.351C527.822 112.714 532.975 109.584 535.378 102.159C538.383 92.8782 535.652 84.4161 533.193 79.5027C530.735 74.5893 524.727 71.8596 521.723 71.8596H487.037ZM502.604 84.4161V101.34H515.168C516.533 101.34 519.428 100.412 520.084 96.6997V89.3296C519.993 87.8737 518.882 84.8529 515.168 84.4161H502.604ZM429.409 78.1379C427.497 79.9577 423.619 85.7264 423.401 94.243C423.128 104.889 423.401 114.443 426.405 119.356C429.409 124.269 432.96 128.364 442.519 130.275C452.078 132.186 463.549 129.456 466.553 127.818C469.557 126.18 476.385 120.994 477.751 111.713C479.116 102.432 479.116 92.0592 475.839 83.8702C472.562 75.6812 465.461 72.4056 456.994 71.3137C448.527 70.2218 436.51 71.8596 429.409 78.1379ZM610.212 130.002C616.585 114.352 629.658 82.56 630.969 80.5946C632.608 78.1379 634.793 72.1326 646.264 71.8596C655.44 71.6412 663.197 71.7686 665.928 71.8596V130.275H650.36V120.448H631.789L627.965 130.275H610.212V130.002ZM676.033 130.275V71.8596H690.235C692.511 72.0416 697.555 73.4428 699.521 77.5919C701.488 81.7411 709.809 97.8826 713.723 105.435V71.8596H729.564V130.275H715.635C712.995 130.366 706.896 128.582 703.618 120.721C700.341 112.859 694.423 101.613 691.874 96.9727V130.275H676.033ZM800.028 80.3216V121.54C799.937 124.36 801.394 130.002 807.949 130.002H844V117.172H816.688C816.324 117.172 815.596 116.845 815.596 115.534V107.345H839.63V94.243H815.596V86.054C815.505 85.508 815.705 84.4161 817.235 84.4161H844V71.8596H805.764C803.852 72.0416 800.028 73.9888 800.028 80.3216ZM637.251 107.345H650.36V84.9621C648.358 84.4161 642.932 88.1285 637.251 107.345Z" stroke="#0E2547"/>
<defs>
<radialGradient id="paint0_radial_264_39" cx="0" cy="0" r="1" gradientUnits="userSpaceOnUse" gradientTransform="translate(179.5 99.5) rotate(178.995) scale(114.018 135.202)">
<stop stop-color="#00C4F5"/>
<stop offset="0.670243" stop-color="#007FC5"/>
</radialGradient>
</defs>
</svg>
